STARTFONT 2.1
FONT -Adobe-Courier-Bold-O-Normal--8-80-75-75-M-50-windows-1251
SIZE 8 75 75
FONTBOUNDINGBOX 8 11 -1 -1
COMMENT $XConsortium: courBO08.bdf,v 1.11 95/01/26 18:00:12 gildea Exp $
COMMENT 
COMMENT +
COMMENT  Copyright 1984-1989, 1994 Adobe Systems Incorporated.
COMMENT  Copyright 1988, 1994 Digital Equipment Corporation.
COMMENT
COMMENT  Adobe is a trademark of Adobe Systems Incorporated which may be
COMMENT  registered in certain jurisdictions.
COMMENT  Permission to use these trademarks is hereby granted only in
COMMENT  association with the images described in this file.
COMMENT
COMMENT  Permission to use, copy, modify, distribute and sell this software
COMMENT  and its documentation for any purpose and without fee is hereby
COMMENT  granted, provided that the above copyright notices appear in all
COMMENT  copies and that both those copyright notices and this permission
COMMENT  notice appear in supporting documentation, and that the names of
COMMENT  Adobe Systems and Digital Equipment Corporation not be used in
COMMENT  advertising or publicity pertaining to distribution of the software
COMMENT  without specific, written prior permission.  Adobe Systems and
COMMENT  Digital Equipment Corporation make no representations about the
COMMENT  suitability of this software for any purpose.  It is provided "as
COMMENT  is" without express or implied warranty.
COMMENT -
STARTPROPERTIES 32
FOUNDRY "Adobe"
FAMILY_NAME "Courier"
WEIGHT_NAME "Bold"
SLANT "O"
SETWIDTH_NAME "Normal"
ADD_STYLE_NAME ""
PIXEL_SIZE 8
POINT_SIZE 80
RESOLUTION_X 75
RESOLUTION_Y 75
SPACING "M"
AVERAGE_WIDTH 50
CHARSET_REGISTRY "windows"
CHARSET_ENCODING "1251"
CAP_HEIGHT 5
X_HEIGHT 4
FONT_ASCENT 7
FONT_DESCENT 2
FACE_NAME "Courier Bold Oblique"
COPYRIGHT "Copyright (c) 1984, 1987 Adobe Systems Incorporated. All Rights Reserved. Copyright (c) 1988, 1991 Digital Equipment Corporation. All Rights Reserved."
NOTICE "No mark"
_DEC_DEVICE_FONTNAMES "PS=Courier-BoldOblique"

STARTCHAR space
ENCODING 32
SWIDTH 600 0
DWIDTH 5 0
BBX 0 0 0 0
BITMAP
ENDCHAR
STARTCHAR exclam
ENCODING 33
SWIDTH 600 0
DWIDTH 5 0
BBX 3 6 1 0
BITMAP
60
60
40
40
00
C0
ENDCHAR
STARTCHAR quotedbl
ENCODING 34
SWIDTH 600 0
DWIDTH 5 0
BBX 4 3 1 3
BITMAP
50
50
A0
ENDCHAR
STARTCHAR numbersign
ENCODING 35
SWIDTH 600 0
DWIDTH 5 0
BBX 4 7 0 -1
BITMAP
50
50
F0
50
F0
A0
A0
ENDCHAR
STARTCHAR dollar
ENCODING 36
SWIDTH 600 0
DWIDTH 5 0
BBX 5 7 0 -1
BITMAP
10
78
60
30
B0
E0
20
ENDCHAR
STARTCHAR percent
ENCODING 37
SWIDTH 600 0
DWIDTH 5 0
BBX 6 6 0 0
BITMAP
64
A8
F0
38
68
B0
ENDCHAR
STARTCHAR ampersand
ENCODING 38
SWIDTH 600 0
DWIDTH 5 0
BBX 6 5 -1 0
BITMAP
38
60
74
D8
78
ENDCHAR
STARTCHAR quotesingle
ENCODING 39
SWIDTH 600 0
DWIDTH 5 0
BBX 2 3 3 5
BITMAP
40
40
80
ENDCHAR
STARTCHAR parenleft
ENCODING 40
SWIDTH 600 0
DWIDTH 5 0
BBX 4 7 0 -1
BITMAP
10
60
40
C0
C0
40
20
ENDCHAR
STARTCHAR parenright
ENCODING 41
SWIDTH 600 0
DWIDTH 5 0
BBX 4 7 0 -1
BITMAP
40
20
30
30
20
60
80
ENDCHAR
STARTCHAR asterisk
ENCODING 42
SWIDTH 600 0
DWIDTH 5 0
BBX 4 3 1 3
BITMAP
20
F0
90
ENDCHAR
STARTCHAR plus
ENCODING 43
SWIDTH 600 0
DWIDTH 5 0
BBX 4 4 0 0
BITMAP
20
F0
40
40
ENDCHAR
STARTCHAR comma
ENCODING 44
SWIDTH 600 0
DWIDTH 5 0
BBX 2 2 0 -1
BITMAP
40
C0
ENDCHAR
STARTCHAR minus
ENCODING 45
SWIDTH 600 0
DWIDTH 5 0
BBX 4 1 0 2
BITMAP
F0
ENDCHAR
STARTCHAR period
ENCODING 46
SWIDTH 600 0
DWIDTH 5 0
BBX 2 1 0 0
BITMAP
C0
ENDCHAR
STARTCHAR slash
ENCODING 47
SWIDTH 600 0
DWIDTH 5 0
BBX 4 7 0 0
BITMAP
10
10
20
20
40
40
80
ENDCHAR
STARTCHAR zero
ENCODING 48
SWIDTH 600 0
DWIDTH 5 0
BBX 5 6 0 0
BITMAP
30
58
D8
D0
D0
60
ENDCHAR
STARTCHAR one
ENCODING 49
SWIDTH 600 0
DWIDTH 5 0
BBX 5 6 0 0
BITMAP
18
70
30
20
60
F0
ENDCHAR
STARTCHAR two
ENCODING 50
SWIDTH 600 0
DWIDTH 5 0
BBX 5 6 -1 0
BITMAP
38
68
18
20
68
F8
ENDCHAR
STARTCHAR three
ENCODING 51
SWIDTH 600 0
DWIDTH 5 0
BBX 5 6 0 0
BITMAP
70
18
60
30
B0
E0
ENDCHAR
STARTCHAR four
ENCODING 52
SWIDTH 600 0
DWIDTH 5 0
BBX 5 6 0 0
BITMAP
30
50
D0
F8
20
20
ENDCHAR
STARTCHAR five
ENCODING 53
SWIDTH 600 0
DWIDTH 5 0
BBX 5 6 0 0
BITMAP
78
40
60
30
B0
E0
ENDCHAR
STARTCHAR six
ENCODING 54
SWIDTH 600 0
DWIDTH 5 0
BBX 4 6 0 0
BITMAP
30
40
F0
D0
D0
60
ENDCHAR
STARTCHAR seven
ENCODING 55
SWIDTH 600 0
DWIDTH 5 0
BBX 4 6 1 0
BITMAP
F0
B0
20
40
C0
C0
ENDCHAR
STARTCHAR eight
ENCODING 56
SWIDTH 600 0
DWIDTH 5 0
BBX 5 6 0 0
BITMAP
70
D8
70
E0
B0
E0
ENDCHAR
STARTCHAR nine
ENCODING 57
SWIDTH 600 0
DWIDTH 5 0
BBX 5 6 0 0
BITMAP
70
D8
78
18
90
E0
ENDCHAR
STARTCHAR colon
ENCODING 58
SWIDTH 600 0
DWIDTH 5 0
BBX 3 4 0 0
BITMAP
60
00
00
C0
ENDCHAR
STARTCHAR semicolon
ENCODING 59
SWIDTH 600 0
DWIDTH 5 0
BBX 3 5 0 -1
BITMAP
60
00
00
C0
80
ENDCHAR
STARTCHAR less
ENCODING 60
SWIDTH 600 0
DWIDTH 5 0
BBX 4 5 0 0
BITMAP
30
40
80
40
20
ENDCHAR
STARTCHAR equal
ENCODING 61
SWIDTH 600 0
DWIDTH 5 0
BBX 4 3 0 1
BITMAP
70
00
E0
ENDCHAR
STARTCHAR greater
ENCODING 62
SWIDTH 600 0
DWIDTH 5 0
BBX 4 5 0 0
BITMAP
40
20
10
20
C0
ENDCHAR
STARTCHAR question
ENCODING 63
SWIDTH 600 0
DWIDTH 5 0
BBX 4 6 1 0
BITMAP
60
B0
60
40
00
C0
ENDCHAR
STARTCHAR at
ENCODING 64
SWIDTH 600 0
DWIDTH 5 0
BBX 5 6 0 0
BITMAP
70
C8
B8
B0
80
60
ENDCHAR
STARTCHAR A
ENCODING 65
SWIDTH 600 0
DWIDTH 5 0
BBX 5 5 -1 0
BITMAP
38
28
68
58
D8
ENDCHAR
STARTCHAR B
ENCODING 66
SWIDTH 600 0
DWIDTH 5 0
BBX 5 5 -1 0
BITMAP
78
28
70
58
F0
ENDCHAR
STARTCHAR C
ENCODING 67
SWIDTH 600 0
DWIDTH 5 0
BBX 5 5 0 0
BITMAP
38
50
C0
D0
60
ENDCHAR
STARTCHAR D
ENCODING 68
SWIDTH 600 0
DWIDTH 5 0
BBX 5 5 -1 0
BITMAP
78
28
48
58
F0
ENDCHAR
STARTCHAR E
ENCODING 69
SWIDTH 600 0
DWIDTH 5 0
BBX 5 5 0 0
BITMAP
78
20
70
40
F0
ENDCHAR
STARTCHAR F
ENCODING 70
SWIDTH 600 0
DWIDTH 5 0
BBX 5 5 0 0
BITMAP
78
20
70
40
C0
ENDCHAR
STARTCHAR G
ENCODING 71
SWIDTH 600 0
DWIDTH 5 0
BBX 5 5 0 0
BITMAP
38
40
D0
D0
70
ENDCHAR
STARTCHAR H
ENCODING 72
SWIDTH 600 0
DWIDTH 5 0
BBX 6 5 -1 0
BITMAP
6C
28
78
50
D8
ENDCHAR
STARTCHAR I
ENCODING 73
SWIDTH 600 0
DWIDTH 5 0
BBX 5 5 0 0
BITMAP
78
30
20
60
F0
ENDCHAR
STARTCHAR J
ENCODING 74
SWIDTH 600 0
DWIDTH 5 0
BBX 5 5 0 0
BITMAP
78
30
A0
A0
C0
ENDCHAR
STARTCHAR K
ENCODING 75
SWIDTH 600 0
DWIDTH 5 0
BBX 6 5 -1 0
BITMAP
6C
28
70
58
EC
ENDCHAR
STARTCHAR L
ENCODING 76
SWIDTH 600 0
DWIDTH 5 0
BBX 4 5 0 0
BITMAP
70
60
40
50
F0
ENDCHAR
STARTCHAR M
ENCODING 77
SWIDTH 600 0
DWIDTH 5 0
BBX 6 5 -1 0
BITMAP
6C
38
78
48
D8
ENDCHAR
STARTCHAR N
ENCODING 78
SWIDTH 600 0
DWIDTH 5 0
BBX 5 5 -1 0
BITMAP
48
68
70
50
D0
ENDCHAR
STARTCHAR O
ENCODING 79
SWIDTH 600 0
DWIDTH 5 0
BBX 5 5 0 0
BITMAP
70
58
D8
D0
60
ENDCHAR
STARTCHAR P
ENCODING 80
SWIDTH 600 0
DWIDTH 5 0
BBX 5 5 0 0
BITMAP
70
58
70
40
C0
ENDCHAR
STARTCHAR Q
ENCODING 81
SWIDTH 600 0
DWIDTH 5 0
BBX 5 6 0 -1
BITMAP
70
58
D8
D0
60
F0
ENDCHAR
STARTCHAR R
ENCODING 82
SWIDTH 600 0
DWIDTH 5 0
BBX 5 5 -1 0
BITMAP
70
58
70
50
D8
ENDCHAR
STARTCHAR S
ENCODING 83
SWIDTH 600 0
DWIDTH 5 0
BBX 5 5 0 0
BITMAP
78
68
30
D0
F0
ENDCHAR
STARTCHAR T
ENCODING 84
SWIDTH 600 0
DWIDTH 5 0
BBX 5 5 0 0
BITMAP
F8
A8
20
60
E0
ENDCHAR
STARTCHAR U
ENCODING 85
SWIDTH 600 0
DWIDTH 5 0
BBX 5 5 0 0
BITMAP
68
C8
D8
D0
60
ENDCHAR
STARTCHAR V
ENCODING 86
SWIDTH 600 0
DWIDTH 5 0
BBX 5 5 0 0
BITMAP
D8
50
60
60
40
ENDCHAR
STARTCHAR W
ENCODING 87
SWIDTH 600 0
DWIDTH 5 0
BBX 5 5 0 0
BITMAP
C8
68
78
70
60
ENDCHAR
STARTCHAR X
ENCODING 88
SWIDTH 600 0
DWIDTH 5 0
BBX 6 5 -1 0
BITMAP
6C
38
30
50
D8
ENDCHAR
STARTCHAR Y
ENCODING 89
SWIDTH 600 0
DWIDTH 5 0
BBX 5 5 0 0
BITMAP
D8
D0
60
40
E0
ENDCHAR
STARTCHAR Z
ENCODING 90
SWIDTH 600 0
DWIDTH 5 0
BBX 5 5 0 0
BITMAP
78
50
20
50
F0
ENDCHAR
STARTCHAR bracketleft
ENCODING 91
SWIDTH 600 0
DWIDTH 5 0
BBX 5 7 0 -1
BITMAP
38
20
60
40
40
C0
E0
ENDCHAR
STARTCHAR backslash
ENCODING 92
SWIDTH 600 0
DWIDTH 5 0
BBX 3 7 1 0
BITMAP
80
80
40
40
20
20
20
ENDCHAR
STARTCHAR bracketright
ENCODING 93
SWIDTH 600 0
DWIDTH 5 0
BBX 5 7 0 -1
BITMAP
38
18
10
30
20
20
E0
ENDCHAR
STARTCHAR asciicircum
ENCODING 94
SWIDTH 600 0
DWIDTH 5 0
BBX 5 3 0 3
BITMAP
20
70
98
ENDCHAR
STARTCHAR underscore
ENCODING 95
SWIDTH 600 0
DWIDTH 5 0
BBX 5 1 -1 -1
BITMAP
F8
ENDCHAR
STARTCHAR grave
ENCODING 96
SWIDTH 600 0
DWIDTH 5 0
BBX 3 2 2 7
BITMAP
C0
20
ENDCHAR
STARTCHAR a
ENCODING 97
SWIDTH 600 0
DWIDTH 5 0
BBX 5 4 0 0
BITMAP
70
38
D0
F0
ENDCHAR
STARTCHAR b
ENCODING 98
SWIDTH 600 0
DWIDTH 5 0
BBX 5 6 0 0
BITMAP
60
40
70
58
50
E0
ENDCHAR
STARTCHAR c
ENCODING 99
SWIDTH 600 0
DWIDTH 5 0
BBX 4 4 0 0
BITMAP
70
C0
D0
60
ENDCHAR
STARTCHAR d
ENCODING 100
SWIDTH 600 0
DWIDTH 5 0
BBX 5 6 0 0
BITMAP
18
08
78
D0
D0
70
ENDCHAR
STARTCHAR e
ENCODING 101
SWIDTH 600 0
DWIDTH 5 0
BBX 5 4 0 0
BITMAP
70
F8
C0
70
ENDCHAR
STARTCHAR f
ENCODING 102
SWIDTH 600 0
DWIDTH 5 0
BBX 5 6 0 0
BITMAP
18
20
78
20
60
F0
ENDCHAR
STARTCHAR g
ENCODING 103
SWIDTH 600 0
DWIDTH 5 0
BBX 5 5 0 -1
BITMAP
78
D0
F0
30
E0
ENDCHAR
STARTCHAR h
ENCODING 104
SWIDTH 600 0
DWIDTH 5 0
BBX 5 6 0 0
BITMAP
40
40
70
58
50
D8
ENDCHAR
STARTCHAR i
ENCODING 105
SWIDTH 600 0
DWIDTH 5 0
BBX 4 6 1 0
BITMAP
30
00
E0
40
40
E0
ENDCHAR
STARTCHAR j
ENCODING 106
SWIDTH 600 0
DWIDTH 5 0
BBX 4 7 0 -1
BITMAP
30
00
70
20
60
60
C0
ENDCHAR
STARTCHAR k
ENCODING 107
SWIDTH 600 0
DWIDTH 5 0
BBX 5 6 -1 0
BITMAP
40
40
48
70
50
D8
ENDCHAR
STARTCHAR l
ENCODING 108
SWIDTH 600 0
DWIDTH 5 0
BBX 4 6 0 0
BITMAP
60
20
20
20
60
F0
ENDCHAR
STARTCHAR m
ENCODING 109
SWIDTH 600 0
DWIDTH 5 0
BBX 6 4 -1 0
BITMAP
F8
AC
A8
A8
ENDCHAR
STARTCHAR n
ENCODING 110
SWIDTH 600 0
DWIDTH 5 0
BBX 5 4 0 0
BITMAP
F0
58
50
D8
ENDCHAR
STARTCHAR o
ENCODING 111
SWIDTH 600 0
DWIDTH 5 0
BBX 5 4 0 0
BITMAP
70
D8
D0
60
ENDCHAR
STARTCHAR p
ENCODING 112
SWIDTH 600 0
DWIDTH 5 0
BBX 5 5 -1 -1
BITMAP
70
58
50
60
E0
ENDCHAR
STARTCHAR q
ENCODING 113
SWIDTH 600 0
DWIDTH 5 0
BBX 5 5 0 -1
BITMAP
78
D8
D0
70
38
ENDCHAR
STARTCHAR r
ENCODING 114
SWIDTH 600 0
DWIDTH 5 0
BBX 5 4 0 0
BITMAP
D8
68
40
E0
ENDCHAR
STARTCHAR s
ENCODING 115
SWIDTH 600 0
DWIDTH 5 0
BBX 5 4 0 0
BITMAP
78
60
30
F0
ENDCHAR
STARTCHAR t
ENCODING 116
SWIDTH 600 0
DWIDTH 5 0
BBX 4 6 1 0
BITMAP
20
60
F0
40
D0
60
ENDCHAR
STARTCHAR u
ENCODING 117
SWIDTH 600 0
DWIDTH 5 0
BBX 5 4 0 0
BITMAP
58
50
D0
78
ENDCHAR
STARTCHAR v
ENCODING 118
SWIDTH 600 0
DWIDTH 5 0
BBX 5 4 0 0
BITMAP
D8
50
60
40
ENDCHAR
STARTCHAR w
ENCODING 119
SWIDTH 600 0
DWIDTH 5 0
BBX 5 4 0 0
BITMAP
A8
A8
F0
A0
ENDCHAR
STARTCHAR x
ENCODING 120
SWIDTH 600 0
DWIDTH 5 0
BBX 5 4 -1 0
BITMAP
68
30
70
D8
ENDCHAR
STARTCHAR y
ENCODING 121
SWIDTH 600 0
DWIDTH 5 0
BBX 4 5 0 -1
BITMAP
D0
50
70
20
C0
ENDCHAR
STARTCHAR z
ENCODING 122
SWIDTH 600 0
DWIDTH 5 0
BBX 5 4 -1 0
BITMAP
78
30
68
F8
ENDCHAR
STARTCHAR braceleft
ENCODING 123
SWIDTH 600 0
DWIDTH 5 0
BBX 5 7 0 -1
BITMAP
18
20
20
C0
40
40
20
ENDCHAR
STARTCHAR bar
ENCODING 124
SWIDTH 600 0
DWIDTH 5 0
BBX 2 6 1 0
BITMAP
40
40
40
80
80
80
ENDCHAR
STARTCHAR braceright
ENCODING 125
SWIDTH 600 0
DWIDTH 5 0
BBX 5 7 -1 -1
BITMAP
20
10
10
18
20
20
C0
ENDCHAR
STARTCHAR asciitilde
ENCODING 126
SWIDTH 600 0
DWIDTH 5 0
BBX 4 2 1 3
BITMAP
50
A0
ENDCHAR
STARTCHAR quotesinglbase
ENCODING 130
SWIDTH 600 0
DWIDTH 5 0
BBX 2 3 1 -1
BITMAP
40
40
80
ENDCHAR
STARTCHAR quotedblbase
ENCODING 132
SWIDTH 600 0
DWIDTH 5 0
BBX 4 3 0 -1
BITMAP
50
50
A0
ENDCHAR
STARTCHAR ellipsis
ENCODING 133
SWIDTH 600 0
DWIDTH 5 0
BBX 5 1 0 0
BITMAP
A8
ENDCHAR
STARTCHAR dagger
ENCODING 134
SWIDTH 600 0
DWIDTH 5 0
BBX 4 8 2 0
BITMAP
20
20
F0
40
40
80
80
80
ENDCHAR
STARTCHAR daggerdbl
ENCODING 135
SWIDTH 600 0
DWIDTH 5 0
BBX 5 8 1 0
BITMAP
10
10
78
20
20
F0
40
40
ENDCHAR
STARTCHAR Euro
ENCODING 136
SWIDTH 600 0
DWIDTH 5 0
BBX 5 5 0 0
BITMAP
38
50
C0
90
60
ENDCHAR
STARTCHAR perthousand
ENCODING 137
SWIDTH 600 0
DWIDTH 5 0
BBX 7 7 -1 0
BITMAP
30
50
6C
30
F6
5A
6C
ENDCHAR
STARTCHAR guilsinglleft
ENCODING 139
SWIDTH 600 0
DWIDTH 5 0
BBX 3 4 1 1
BITMAP
20
40
C0
40
ENDCHAR
STARTCHAR quoteleft
ENCODING 145
SWIDTH 600 0
DWIDTH 5 0
BBX 2 3 2 3
BITMAP
80
80
40
ENDCHAR
STARTCHAR quoteright
ENCODING 146
SWIDTH 600 0
DWIDTH 5 0
BBX 2 3 2 3
BITMAP
40
40
80
ENDCHAR
STARTCHAR quotedblleft
ENCODING 147
SWIDTH 600 0
DWIDTH 5 0
BBX 4 3 2 5
BITMAP
A0
A0
50
ENDCHAR
STARTCHAR quotedblright
ENCODING 148
SWIDTH 600 0
DWIDTH 5 0
BBX 4 3 2 5
BITMAP
50
50
A0
ENDCHAR
STARTCHAR bullet
ENCODING 149
SWIDTH 600 0
DWIDTH 5 0
BBX 2 2 2 3
BITMAP
C0
C0
ENDCHAR
STARTCHAR endash
ENCODING 150
SWIDTH 600 0
DWIDTH 5 0
BBX 4 1 0 3
BITMAP
F0
ENDCHAR
STARTCHAR emdash
ENCODING 151
SWIDTH 600 0
DWIDTH 5 0
BBX 5 1 0 3
BITMAP
F8
ENDCHAR
STARTCHAR trademark
ENCODING 153
SWIDTH 600 0
DWIDTH 5 0
BBX 7 4 0 3
BITMAP
F2
5E
B4
A4
ENDCHAR
STARTCHAR guilsinglright
ENCODING 155
SWIDTH 600 0
DWIDTH 5 0
BBX 3 4 2 1
BITMAP
40
60
40
80
ENDCHAR
STARTCHAR space
ENCODING 160
SWIDTH 600 0
DWIDTH 5 0
BBX 0 0 0 0
BITMAP
ENDCHAR
STARTCHAR afii10062
ENCODING 161
SWIDTH 600 0
DWIDTH 5 0
BBX 5 7 0 0
BITMAP
30
00
D8
50
60
20
C0
ENDCHAR
STARTCHAR afii10110
ENCODING 162
SWIDTH 600 0
DWIDTH 5 0
BBX 4 7 0 -1
BITMAP
30
00
D0
50
70
20
C0
ENDCHAR
STARTCHAR afii10057
ENCODING 163
SWIDTH 600 0
DWIDTH 5 0
BBX 5 5 0 0
BITMAP
78
30
A0
A0
C0
ENDCHAR
STARTCHAR currency
ENCODING 164
SWIDTH 600 0
DWIDTH 5 0
BBX 4 4 0 1
BITMAP
50
60
60
A0
ENDCHAR
STARTCHAR afii10050
ENCODING 165
SWIDTH 600 0
DWIDTH 5 0
BBX 5 6 0 0
BITMAP
08
78
20
60
40
C0
ENDCHAR
STARTCHAR brokenbar
ENCODING 166
SWIDTH 600 0
DWIDTH 5 0
BBX 2 6 1 0
BITMAP
40
40
00
00
80
80
ENDCHAR
STARTCHAR section
ENCODING 167
SWIDTH 600 0
DWIDTH 5 0
BBX 4 7 0 -1
BITMAP
30
40
60
50
60
20
C0
ENDCHAR
STARTCHAR afii10023
ENCODING 168
SWIDTH 600 0
DWIDTH 5 0
BBX 5 7 0 0
BITMAP
28
00
78
20
70
40
F0
ENDCHAR
STARTCHAR copyright
ENCODING 169
SWIDTH 600 0
DWIDTH 5 0
BBX 5 7 0 -1
BITMAP
30
48
B8
E0
B8
90
60
ENDCHAR
STARTCHAR afii10053
ENCODING 170
SWIDTH 600 0
DWIDTH 5 0
BBX 5 5 0 0
BITMAP
38
40
F0
C0
70
ENDCHAR
STARTCHAR guillemotleft
ENCODING 171
SWIDTH 600 0
DWIDTH 5 0
BBX 5 4 -1 0
BITMAP
28
50
F0
50
ENDCHAR
STARTCHAR logicalnot
ENCODING 172
SWIDTH 600 0
DWIDTH 5 0
BBX 4 2 0 2
BITMAP
F0
20
ENDCHAR
STARTCHAR hyphen
ENCODING 173
SWIDTH 600 0
DWIDTH 5 0
BBX 3 1 1 2
BITMAP
E0
ENDCHAR
STARTCHAR registered
ENCODING 174
SWIDTH 600 0
DWIDTH 5 0
BBX 5 6 0 0
BITMAP
30
48
B8
B0
E8
70
ENDCHAR
STARTCHAR afii10056
ENCODING 175
SWIDTH 600 0
DWIDTH 5 0
BBX 5 7 0 0
BITMAP
28
00
78
30
20
60
F0
ENDCHAR
STARTCHAR degree
ENCODING 176
SWIDTH 600 0
DWIDTH 5 0
BBX 3 3 1 3
BITMAP
40
A0
C0
ENDCHAR
STARTCHAR plusminus
ENCODING 177
SWIDTH 600 0
DWIDTH 5 0
BBX 4 5 0 0
BITMAP
20
F0
40
00
F0
ENDCHAR
STARTCHAR afii10055
ENCODING 178
SWIDTH 600 0
DWIDTH 5 0
BBX 5 5 0 0
BITMAP
78
30
20
60
F0
ENDCHAR
STARTCHAR afii10103
ENCODING 179
SWIDTH 600 0
DWIDTH 5 0
BBX 4 6 1 0
BITMAP
30
00
E0
40
40
E0
ENDCHAR
STARTCHAR afii10098
ENCODING 180
SWIDTH 600 0
DWIDTH 5 0
BBX 5 5 0 0
BITMAP
08
78
20
40
E0
ENDCHAR
STARTCHAR mu
ENCODING 181
SWIDTH 600 0
DWIDTH 5 0
BBX 5 5 -1 -1
BITMAP
68
48
50
78
C0
ENDCHAR
STARTCHAR paragraph
ENCODING 182
SWIDTH 600 0
DWIDTH 5 0
BBX 6 7 -1 -1
BITMAP
3C
68
78
28
28
50
D0
ENDCHAR
STARTCHAR periodcentered
ENCODING 183
SWIDTH 600 0
DWIDTH 5 0
BBX 1 2 2 2
BITMAP
80
80
ENDCHAR
STARTCHAR afii10071
ENCODING 184
SWIDTH 600 0
DWIDTH 5 0
BBX 5 6 0 0
BITMAP
28
00
70
F8
C0
70
ENDCHAR
STARTCHAR afii61352
ENCODING 185
SWIDTH 600 0
DWIDTH 5 0
BBX 7 5 -1 0
BITMAP
4A
6A
70
54
D0
ENDCHAR
STARTCHAR afii10101
ENCODING 186
SWIDTH 600 0
DWIDTH 5 0
BBX 4 4 0 0
BITMAP
70
E0
C0
60
ENDCHAR
STARTCHAR guillemotright
ENCODING 187
SWIDTH 600 0
DWIDTH 5 0
BBX 5 4 0 0
BITMAP
50
78
50
A0
ENDCHAR
STARTCHAR afii10105
ENCODING 188
SWIDTH 600 0
DWIDTH 5 0
BBX 4 7 0 -1
BITMAP
30
00
70
20
60
60
C0
ENDCHAR
STARTCHAR afii10054
ENCODING 189
SWIDTH 600 0
DWIDTH 5 0
BBX 5 5 0 0
BITMAP
78
68
30
D0
F0
ENDCHAR
STARTCHAR afii10102
ENCODING 190
SWIDTH 600 0
DWIDTH 5 0
BBX 5 4 0 0
BITMAP
78
60
30
F0
ENDCHAR
STARTCHAR afii10104
ENCODING 191
SWIDTH 600 0
DWIDTH 5 0
BBX 4 6 0 0
BITMAP
50
00
70
20
20
F0
ENDCHAR
STARTCHAR afii10017
ENCODING 192
SWIDTH 600 0
DWIDTH 5 0
BBX 5 5 -1 0
BITMAP
38
28
68
58
D8
ENDCHAR
STARTCHAR afii10018
ENCODING 193
SWIDTH 600 0
DWIDTH 5 0
BBX 5 5 -1 0
BITMAP
78
20
70
58
F0
ENDCHAR
STARTCHAR afii10019
ENCODING 194
SWIDTH 600 0
DWIDTH 5 0
BBX 5 5 -1 0
BITMAP
78
28
70
58
F0
ENDCHAR
STARTCHAR afii10020
ENCODING 195
SWIDTH 600 0
DWIDTH 5 0
BBX 5 5 0 0
BITMAP
78
20
60
40
C0
ENDCHAR
STARTCHAR afii10021
ENCODING 196
SWIDTH 600 0
DWIDTH 5 0
BBX 6 6 -1 -1
BITMAP
3C
28
28
50
F8
88
ENDCHAR
STARTCHAR afii10022
ENCODING 197
SWIDTH 600 0
DWIDTH 5 0
BBX 5 5 0 0
BITMAP
78
20
70
40
F0
ENDCHAR
STARTCHAR afii10024
ENCODING 198
SWIDTH 600 0
DWIDTH 5 0
BBX 6 5 0 0
BITMAP
54
78
30
78
A8
ENDCHAR
STARTCHAR afii10025
ENCODING 199
SWIDTH 600 0
DWIDTH 5 0
BBX 5 5 -1 0
BITMAP
78
08
30
18
F0
ENDCHAR
STARTCHAR afii10026
ENCODING 200
SWIDTH 600 0
DWIDTH 5 0
BBX 6 5 -1 0
BITMAP
6C
28
58
70
D8
ENDCHAR
STARTCHAR afii10027
ENCODING 201
SWIDTH 600 0
DWIDTH 5 0
BBX 6 7 -1 0
BITMAP
18
00
6C
28
58
70
D8
ENDCHAR
STARTCHAR afii10028
ENCODING 202
SWIDTH 600 0
DWIDTH 5 0
BBX 6 5 -1 0
BITMAP
6C
28
70
58
EC
ENDCHAR
STARTCHAR afii10029
ENCODING 203
SWIDTH 600 0
DWIDTH 5 0
BBX 6 5 -1 0
BITMAP
3C
28
28
D0
D8
ENDCHAR
STARTCHAR afii10030
ENCODING 204
SWIDTH 600 0
DWIDTH 5 0
BBX 6 5 -1 0
BITMAP
6C
38
78
48
D8
ENDCHAR
STARTCHAR afii10031
ENCODING 205
SWIDTH 600 0
DWIDTH 5 0
BBX 6 5 -1 0
BITMAP
6C
28
78
50
D8
ENDCHAR
STARTCHAR afii10032
ENCODING 206
SWIDTH 600 0
DWIDTH 5 0
BBX 5 5 0 0
BITMAP
70
58
D8
D0
60
ENDCHAR
STARTCHAR afii10033
ENCODING 207
SWIDTH 600 0
DWIDTH 5 0
BBX 6 5 -1 0
BITMAP
7C
28
68
50
D8
ENDCHAR
STARTCHAR afii10034
ENCODING 208
SWIDTH 600 0
DWIDTH 5 0
BBX 5 5 0 0
BITMAP
70
58
70
40
C0
ENDCHAR
STARTCHAR afii10035
ENCODING 209
SWIDTH 600 0
DWIDTH 5 0
BBX 5 5 0 0
BITMAP
38
50
C0
D0
60
ENDCHAR
STARTCHAR afii10036
ENCODING 210
SWIDTH 600 0
DWIDTH 5 0
BBX 5 5 0 0
BITMAP
F8
A8
20
60
E0
ENDCHAR
STARTCHAR afii10037
ENCODING 211
SWIDTH 600 0
DWIDTH 5 0
BBX 5 5 0 0
BITMAP
D8
50
60
20
C0
ENDCHAR
STARTCHAR afii10038
ENCODING 212
SWIDTH 600 0
DWIDTH 5 0
BBX 5 5 0 0
BITMAP
10
78
A8
70
20
ENDCHAR
STARTCHAR afii10039
ENCODING 213
SWIDTH 600 0
DWIDTH 5 0
BBX 6 5 -1 0
BITMAP
6C
38
30
50
D8
ENDCHAR
STARTCHAR afii10040
ENCODING 214
SWIDTH 600 0
DWIDTH 5 0
BBX 6 6 -1 -1
BITMAP
6C
28
68
50
F8
08
ENDCHAR
STARTCHAR afii10041
ENCODING 215
SWIDTH 600 0
DWIDTH 5 0
BBX 5 5 0 0
BITMAP
D8
50
70
20
30
ENDCHAR
STARTCHAR afii10042
ENCODING 216
SWIDTH 600 0
DWIDTH 5 0
BBX 5 5 0 0
BITMAP
C8
68
68
B0
F8
ENDCHAR
STARTCHAR afii10043
ENCODING 217
SWIDTH 600 0
DWIDTH 5 0
BBX 5 6 0 -1
BITMAP
C8
68
68
B0
F8
08
ENDCHAR
STARTCHAR afii10044
ENCODING 218
SWIDTH 600 0
DWIDTH 5 0
BBX 5 5 0 0
BITMAP
E0
20
70
58
F0
ENDCHAR
STARTCHAR afii10045
ENCODING 219
SWIDTH 600 0
DWIDTH 5 0
BBX 6 5 -1 0
BITMAP
64
24
74
58
F8
ENDCHAR
STARTCHAR afii10046
ENCODING 220
SWIDTH 600 0
DWIDTH 5 0
BBX 5 5 -1 0
BITMAP
60
20
70
58
F0
ENDCHAR
STARTCHAR afii10047
ENCODING 221
SWIDTH 600 0
DWIDTH 5 0
BBX 5 5 0 0
BITMAP
70
18
78
10
E0
ENDCHAR
STARTCHAR afii10048
ENCODING 222
SWIDTH 600 0
DWIDTH 5 0
BBX 5 5 0 0
BITMAP
50
68
E8
A8
B0
ENDCHAR
STARTCHAR afii10049
ENCODING 223
SWIDTH 600 0
DWIDTH 5 0
BBX 6 5 -1 0
BITMAP
1C
28
38
50
D8
ENDCHAR
STARTCHAR afii10065
ENCODING 224
SWIDTH 600 0
DWIDTH 5 0
BBX 5 4 0 0
BITMAP
70
38
D0
F0
ENDCHAR
STARTCHAR afii10066
ENCODING 225
SWIDTH 600 0
DWIDTH 5 0
BBX 5 6 0 0
BITMAP
38
60
70
D8
D0
60
ENDCHAR
STARTCHAR afii10067
ENCODING 226
SWIDTH 600 0
DWIDTH 5 0
BBX 4 4 0 0
BITMAP
70
60
50
F0
ENDCHAR
STARTCHAR afii10068
ENCODING 227
SWIDTH 600 0
DWIDTH 5 0
BBX 5 4 0 0
BITMAP
78
28
40
E0
ENDCHAR
STARTCHAR afii10069
ENCODING 228
SWIDTH 600 0
DWIDTH 5 0
BBX 5 5 0 -1
BITMAP
78
28
50
F8
90
ENDCHAR
STARTCHAR afii10070
ENCODING 229
SWIDTH 600 0
DWIDTH 5 0
BBX 5 4 0 0
BITMAP
70
F8
C0
70
ENDCHAR
STARTCHAR afii10072
ENCODING 230
SWIDTH 600 0
DWIDTH 5 0
BBX 6 4 0 0
BITMAP
54
78
F8
A8
ENDCHAR
STARTCHAR afii10073
ENCODING 231
SWIDTH 600 0
DWIDTH 5 0
BBX 4 4 0 0
BITMAP
70
20
10
F0
ENDCHAR
STARTCHAR afii10074
ENCODING 232
SWIDTH 600 0
DWIDTH 5 0
BBX 5 4 0 0
BITMAP
C8
58
70
D8
ENDCHAR
STARTCHAR afii10075
ENCODING 233
SWIDTH 600 0
DWIDTH 5 0
BBX 5 6 0 0
BITMAP
30
00
C8
58
70
D8
ENDCHAR
STARTCHAR afii10076
ENCODING 234
SWIDTH 600 0
DWIDTH 5 0
BBX 5 4 -1 0
BITMAP
48
70
50
D8
ENDCHAR
STARTCHAR afii10077
ENCODING 235
SWIDTH 600 0
DWIDTH 5 0
BBX 5 4 0 0
BITMAP
78
28
D0
D8
ENDCHAR
STARTCHAR afii10078
ENCODING 236
SWIDTH 600 0
DWIDTH 5 0
BBX 6 4 -1 0
BITMAP
64
7C
A8
A8
ENDCHAR
STARTCHAR afii10079
ENCODING 237
SWIDTH 600 0
DWIDTH 5 0
BBX 5 4 0 0
BITMAP
D8
78
50
D8
ENDCHAR
STARTCHAR afii10080
ENCODING 238
SWIDTH 600 0
DWIDTH 5 0
BBX 5 4 0 0
BITMAP
70
D8
D0
60
ENDCHAR
STARTCHAR afii10081
ENCODING 239
SWIDTH 600 0
DWIDTH 5 0
BBX 5 4 0 0
BITMAP
F8
58
50
D8
ENDCHAR
STARTCHAR afii10082
ENCODING 240
SWIDTH 600 0
DWIDTH 5 0
BBX 5 5 -1 -1
BITMAP
70
58
50
60
E0
ENDCHAR
STARTCHAR afii10083
ENCODING 241
SWIDTH 600 0
DWIDTH 5 0
BBX 4 4 0 0
BITMAP
70
C0
D0
60
ENDCHAR
STARTCHAR afii10084
ENCODING 242
SWIDTH 600 0
DWIDTH 5 0
BBX 5 4 1 0
BITMAP
F8
20
40
E0
ENDCHAR
STARTCHAR afii10085
ENCODING 243
SWIDTH 600 0
DWIDTH 5 0
BBX 4 5 0 -1
BITMAP
D0
50
70
20
C0
ENDCHAR
STARTCHAR afii10086
ENCODING 244
SWIDTH 600 0
DWIDTH 5 0
BBX 5 7 0 -1
BITMAP
10
30
78
A8
A8
70
40
ENDCHAR
STARTCHAR afii10087
ENCODING 245
SWIDTH 600 0
DWIDTH 5 0
BBX 5 4 -1 0
BITMAP
68
30
70
D8
ENDCHAR
STARTCHAR afii10088
ENCODING 246
SWIDTH 600 0
DWIDTH 5 0
BBX 5 5 0 -1
BITMAP
E8
68
50
F8
10
ENDCHAR
STARTCHAR afii10089
ENCODING 247
SWIDTH 600 0
DWIDTH 5 0
BBX 4 4 1 0
BITMAP
B0
A0
60
30
ENDCHAR
STARTCHAR afii10090
ENCODING 248
SWIDTH 600 0
DWIDTH 5 0
BBX 6 4 -1 0
BITMAP
54
54
E8
F8
ENDCHAR
STARTCHAR afii10091
ENCODING 249
SWIDTH 600 0
DWIDTH 5 0
BBX 6 5 -1 -1
BITMAP
54
54
E8
FC
08
ENDCHAR
STARTCHAR afii10092
ENCODING 250
SWIDTH 600 0
DWIDTH 5 0
BBX 4 4 1 0
BITMAP
E0
60
50
F0
ENDCHAR
STARTCHAR afii10093
ENCODING 251
SWIDTH 600 0
DWIDTH 5 0
BBX 5 4 0 0
BITMAP
68
68
50
F8
ENDCHAR
STARTCHAR afii10094
ENCODING 252
SWIDTH 600 0
DWIDTH 5 0
BBX 4 4 0 0
BITMAP
60
60
50
F0
ENDCHAR
STARTCHAR afii10095
ENCODING 253
SWIDTH 600 0
DWIDTH 5 0
BBX 5 4 0 0
BITMAP
70
38
10
E0
ENDCHAR
STARTCHAR afii10096
ENCODING 254
SWIDTH 600 0
DWIDTH 5 0
BBX 6 4 0 0
BITMAP
58
6C
A8
B0
ENDCHAR
STARTCHAR afii10097
ENCODING 255
SWIDTH 600 0
DWIDTH 5 0
BBX 5 4 0 0
BITMAP
78
50
70
B0
ENDCHAR
STARTCHAR Lslash
ENCODING -1
SWIDTH 600 0
DWIDTH 5 0
BBX 5 6 0 0
BITMAP
38
30
38
E0
68
F8
ENDCHAR
STARTCHAR OE
ENCODING -1
SWIDTH 600 0
DWIDTH 5 0
BBX 7 6 0 0
BITMAP
3E
58
9C
B0
B0
7C
ENDCHAR
STARTCHAR Scaron
ENCODING -1
SWIDTH 600 0
DWIDTH 5 0
BBX 6 9 0 0
BITMAP
14
18
00
3C
64
78
1C
C8
F0
ENDCHAR
STARTCHAR Ydieresis
ENCODING -1
SWIDTH 600 0
DWIDTH 5 0
BBX 6 8 0 0
BITMAP
28
00
F4
68
30
60
60
F0
ENDCHAR
STARTCHAR Zcaron
ENCODING -1
SWIDTH 600 0
DWIDTH 5 0
BBX 6 9 0 0
BITMAP
14
18
00
3C
4C
18
30
68
F8
ENDCHAR
STARTCHAR breve
ENCODING -1
SWIDTH 600 0
DWIDTH 5 0
BBX 4 2 1 6
BITMAP
90
60
ENDCHAR
STARTCHAR caron
ENCODING -1
SWIDTH 600 0
DWIDTH 5 0
BBX 3 2 2 7
BITMAP
A0
C0
ENDCHAR
STARTCHAR circumflex
ENCODING -1
SWIDTH 600 0
DWIDTH 5 0
BBX 3 2 2 7
BITMAP
60
A0
ENDCHAR
STARTCHAR dotaccent
ENCODING -1
SWIDTH 600 0
DWIDTH 5 0
BBX 1 1 3 7
BITMAP
80
ENDCHAR
STARTCHAR dotlessi
ENCODING -1
SWIDTH 600 0
DWIDTH 5 0
BBX 5 5 0 0
BITMAP
38
18
10
30
F8
ENDCHAR
STARTCHAR fi
ENCODING -1
SWIDTH 600 0
DWIDTH 5 0
BBX 7 7 -1 0
BITMAP
1E
30
FE
36
6C
6C
FE
ENDCHAR
STARTCHAR fl
ENCODING -1
SWIDTH 600 0
DWIDTH 5 0
BBX 7 7 -1 0
BITMAP
1E
36
FE
34
6C
6C
FE
ENDCHAR
STARTCHAR florin
ENCODING -1
SWIDTH 600 0
DWIDTH 5 0
BBX 6 8 1 -1
BITMAP
1C
30
F8
60
60
40
C0
C0
ENDCHAR
STARTCHAR fraction
ENCODING -1
SWIDTH 600 0
DWIDTH 5 0
BBX 5 5 0 1
BITMAP
08
10
20
40
80
ENDCHAR
STARTCHAR hungarumlaut
ENCODING -1
SWIDTH 600 0
DWIDTH 5 0
BBX 4 2 1 6
BITMAP
50
A0
ENDCHAR
STARTCHAR lslash
ENCODING -1
SWIDTH 600 0
DWIDTH 5 0
BBX 6 7 -1 0
BITMAP
1C
0C
18
1C
70
30
F8
ENDCHAR
STARTCHAR oe
ENCODING -1
SWIDTH 600 0
DWIDTH 5 0
BBX 7 5 -1 0
BITMAP
36
5A
BE
B0
6C
ENDCHAR
STARTCHAR ogonek
ENCODING -1
SWIDTH 600 0
DWIDTH 5 0
BBX 3 2 1 -1
BITMAP
80
E0
ENDCHAR
STARTCHAR ring
ENCODING -1
SWIDTH 600 0
DWIDTH 5 0
BBX 3 3 3 7
BITMAP
40
A0
40
ENDCHAR
STARTCHAR scaron
ENCODING -1
SWIDTH 600 0
DWIDTH 5 0
BBX 6 8 0 0
BITMAP
14
18
00
3C
64
78
98
F0
ENDCHAR
STARTCHAR tilde
ENCODING -1
SWIDTH 600 0
DWIDTH 5 0
BBX 4 2 2 7
BITMAP
50
A0
ENDCHAR
STARTCHAR zcaron
ENCODING -1
SWIDTH 600 0
DWIDTH 5 0
BBX 7 8 -1 0
BITMAP
0A
0C
00
3E
4C
38
66
FC
ENDCHAR
ENDFONT
